<svg width="24" height="24" viewBox="0 0 24 24" fill="none" xmlns="http://www.w3.org/2000/svg">
<g id="entypo-social:linkedin-with-circle">
<path id="Vector" d="M12 2.05444C6.50716 2.05444 2.05447 6.50713 2.05447 12C2.05447 17.4928 6.50716 21.9455 12 21.9455C17.4928 21.9455 21.9455 17.4928 21.9455 12C21.9455 6.50713 17.4928 2.05444 12 2.05444ZM9.5654 16.1222H7.55144V9.641H9.5654V16.1222ZM8.54599 8.84536C7.90989 8.84536 7.4986 8.3947 7.4986 7.83734C7.4986 7.26858 7.92232 6.83139 8.57189 6.83139C9.22145 6.83139 9.61927 7.26858 9.63171 7.83734C9.63171 8.3947 9.22145 8.84536 8.54599 8.84536ZM16.9209 16.1222H14.907V12.5304C14.907 11.6943 14.6148 11.1266 13.8865 11.1266C13.3302 11.1266 12.9997 11.511 12.8536 11.8808C12.7998 12.0124 12.7863 12.1989 12.7863 12.3843V16.1211H10.7713V11.7078C10.7713 10.8987 10.7454 10.2222 10.7185 9.63996H12.4682L12.5605 10.5402H12.6009C12.8661 10.1176 13.5156 9.49389 14.6024 9.49389C15.9274 9.49389 16.9209 10.3817 16.9209 12.29V16.1222Z" fill="#1E1E1E"/>
</g>
</svg>
